<?xml version="1.0" encoding="UTF-8"?> <svg xmlns="http://www.w3.org/2000/svg" id="black" width="956" height="272" viewBox="0 0 956 272"><defs><style> .cls-1 { fill: #ffffff; } .cls-2 { fill: #ffb120; } </style></defs><path id="Inoterior" class="cls-1" d="M318,207V76.28H293.68V207H318Zm78.658,0h22.8V145.06q0-13.3-2-21a19.275,19.275,0,0,0-7.7-11.59q-5.7-3.892-16.91-3.895-10.074,0-16.53,3.325a20.269,20.269,0,0,0-9.5,10.355H365.5l-0.76-12.16h-21.28V207h22.8V156.84a100.906,100.906,0,0,1,1.045-17q1.041-5.6,4.37-8.17t10.545-2.565q7.026,0,9.88,1.52t3.7,6.46q0.855,4.942.855,17.67V207Zm82.837,1.52q18.427,0,26.6-4.275t10.45-14.06q2.28-9.783,2.28-31.635t-2.28-31.73q-2.28-9.877-10.45-14.06t-26.6-4.18q-18.623,0-26.79,4.18t-10.45,13.965q-2.28,9.787-2.28,31.825,0,21.852,2.28,31.635t10.45,14.06q8.167,4.275,26.79,4.275h0Zm0-19.19q-8.55,0-11.78-1.9t-3.99-7.6q-0.76-5.7-.76-21.28,0-15.768.76-21.375t3.99-7.505q3.23-1.9,11.78-1.9t11.685,1.9q3.135,1.9,3.895,7.505t0.76,21.375q0,15.582-.76,21.28t-3.99,7.6q-3.232,1.9-11.59,1.9h0Zm89.3,17.67V129.29h19V110.1h-19V81.98H546V110.1h-15.77v19.19H546V207h22.8Zm106.591-48.26q0-20.708-1.9-30.5t-9.6-14.725q-7.7-4.938-24.985-4.94-17.67,0-26.03,5.13a24.06,24.06,0,0,0-10.925,15.3q-2.565,10.167-2.565,29.735,0,20.142,2.565,30.115a22.719,22.719,0,0,0,11.21,14.82q8.643,4.845,27.455,4.845,8.358,0,17.29-.76a99.892,99.892,0,0,0,14.44-2.09V188a251.285,251.285,0,0,1-26.6,1.52q-11.592,0-16.245-1.615a8.612,8.612,0,0,1-5.89-6.08q-1.238-4.462-1.235-15.865h53.01v-7.22Zm-36.86-31.35q6.458,0,9.6,1.52t4.37,6.27q1.233,4.752,1.235,15.2h-31.35q0.188-10.447,1.235-15.01t4.275-6.27q3.228-1.71,10.64-1.71h0ZM696.1,207h22.8V165.2q0-12.727,2.565-19.95a18.256,18.256,0,0,1,8.55-10.45q5.985-3.228,16.815-3.23V108.58q-11.021,0-17.575,3.99t-9.6,14.25h-1.52l-0.76-16.72H696.1V207Zm89.49-119.51V65.83h-23.37V87.49h23.37ZM785.4,207V110.1h-22.99V207H785.4Zm60.039,1.52q18.428,0,26.6-4.275t10.45-14.06q2.28-9.783,2.28-31.635t-2.28-31.73q-2.28-9.877-10.45-14.06t-26.6-4.18q-18.622,0-26.79,4.18t-10.45,13.965q-2.28,9.787-2.28,31.825,0,21.852,2.28,31.635t10.45,14.06q8.168,4.275,26.79,4.275h0Zm0-19.19q-8.55,0-11.78-1.9t-3.99-7.6q-0.76-5.7-.76-21.28,0-15.768.76-21.375t3.99-7.505q3.23-1.9,11.78-1.9t11.685,1.9q3.135,1.9,3.895,7.505t0.76,21.375q0,15.582-.76,21.28t-3.99,7.6q-3.232,1.9-11.59,1.9h0ZM905.282,207h22.8V165.2q0-12.727,2.565-19.95a18.256,18.256,0,0,1,8.55-10.45q5.985-3.228,16.815-3.23V108.58q-11.022,0-17.575,3.99t-9.6,14.25h-1.52l-0.76-16.72h-21.28V207Z" transform="translate(0 -3.063)"></path><path id="Shape_650_copy" data-name="Shape 650 copy" class="cls-2" d="M79.729,25.468L63.767,34.812V53.505l15.961-9.344L118,21.753l38.269,22.408,15.966,9.344V34.812l-15.966-9.344L118,3.059ZM63.767,90.892v82.2L118,204.839l54.235-31.752v-82.2l15.962,9.345v63.506l15.965-9.345V90.892L118,40.446,31.836,90.892V154.4L47.8,163.743V100.237Zm15.961,9.345V81.547L118,59.139l38.269,22.408v82.2L118,186.146l-38.273-22.4V100.237ZM141.947,246.9l78.184-45.769V62.854L236.093,72.2V210.473l-59.044,34.57-35.1,20.549-15.962,9.349v-56.08l15.962-9.349L188.2,182.436l15.965-9.349V191.78l-62.217,36.425V246.9Zm-47.894,0L15.874,201.129V62.854L-0.093,72.2V210.473l59.047,34.57,35.1,20.549,15.966,9.349v-56.08l-15.966-9.349L47.8,182.436l-15.965-9.349V191.78l62.217,36.425V246.9Z" transform="translate(0 -3.063)"></path></svg> 