<svg enable-background="new 0 0 520 520" height="512" viewBox="0 0 520 520" width="512" xmlns="http://www.w3.org/2000/svg"><g id="_x31_474_x5F_32_-_Layer_27_x2C__draft_x2C__draw_x2C__house_x2C__stairs"><g><path d="m90.001 30v160l90-70 50 66.49 110-62.44 10-5.67v-88.38z" fill="#71e2ef"/><path d="m180.001 120 50 66.49-6.19 3.51h-133.81z" fill="#2b3d51"/><path d="m250.001 80c11.05 0 20 8.95 20 20s-8.95 20-20 20-20-8.95-20-20 8.95-20 20-20z" fill="#ffc61b"/><g fill="#935c19"><path d="m440.001 80c-5.523 0-10 4.477-10 10v110c0 5.522 4.477 10 10 10 5.522 0 10-4.478 10-10v-110c0-5.523-4.478-10-10-10z"/><path d="m340.001 114.05c-5.523 0-10 4.477-10 10v135.95c0 5.522 4.477 10 10 10 5.522 0 10-4.478 10-10v-135.95c0-5.524-4.478-10-10-10z"/><path d="m230.001 176.49c-5.523 0-10 4.477-10 10v133.51c0 5.522 4.477 10 10 10s10-4.478 10-10v-133.51c0-5.523-4.477-10-10-10z"/><path d="m140.001 227.569c-5.523 0-10 4.478-10 10v142.431c0 5.522 4.477 10 10 10s10-4.478 10-10v-142.431c0-5.522-4.477-10-10-10z"/></g><path d="m490.001 60h-90c-5.523 0-10-4.478-10-10 0-5.523 4.477-10 10-10h90c5.522 0 10 4.477 10 10 0 5.522-4.478 10-10 10z" fill="#7f4c13"/><path d="m30.01 310.002c-3.482 0-6.865-1.821-8.706-5.066-2.726-4.803-1.042-10.906 3.761-13.633l200.003-113.512 169.996-96.488c1.505-.854 3.206-1.303 4.937-1.303h90c5.522 0 10 4.477 10 10 0 5.522-4.478 10-10 10h-87.36l-367.704 208.697c-1.559.884-3.254 1.305-4.927 1.305z" fill="#7f4c13"/><path d="m490.001 380v60 50h-100-300v-50-60h50 50v-60h40 60v-60h50 50v-60h50 50v60 60z" fill="#a6a6a6"/><g fill="#616668"><path d="m490.001 250h-40c-5.523 0-10 4.477-10 10 0 5.522 4.477 10 10 10h40 .003v-20s-.002 0-.003 0z"/><path d="m360.001 310c-5.523 0-10 4.478-10 10s4.477 10 10 10h130 .003v-20h-.002z"/><path d="m270.001 370c-5.523 0-10 4.478-10 10s4.477 10 10 10h220 .003v-20h-.002z"/></g></g></g></svg>