<?xml version="1.0" encoding="UTF-8"?> <svg xmlns="http://www.w3.org/2000/svg" id="black" width="962.594" height="271.875" viewBox="0 0 962.594 271.875"><defs><style> .cls-1 { fill: #1b1925; } .cls-1, .cls-2 { fill-rule: evenodd; } .cls-2 { fill: #fece51; } </style></defs><path id="Inoterior" class="cls-1" d="M305.04,201V80.3H281.58V201h23.46Zm105.739-55.59a73.625,73.625,0,0,0-1.105-12.75,33.482,33.482,0,0,0-4-11.22,22.123,22.123,0,0,0-8.16-7.99q-5.271-3.06-13.6-3.06a45.811,45.811,0,0,0-21.08,4.76,33.741,33.741,0,0,0-14.28,13.26V111.92h-20.57V201h22.78V148.98a23.175,23.175,0,0,1,3.74-7.48,31.118,31.118,0,0,1,5.695-5.865,25.719,25.719,0,0,1,6.715-3.825,19.517,19.517,0,0,1,6.97-1.36,12.288,12.288,0,0,1,10.37,4.93Q388,140.312,388,151.02V201h22.78V145.41Zm80.578,53.55a42.985,42.985,0,0,0,14.62-10.115,45.383,45.383,0,0,0,9.18-14.705,49.537,49.537,0,0,0,0-35.19,44.7,44.7,0,0,0-9.265-14.7,44.152,44.152,0,0,0-14.62-10.115,48.314,48.314,0,0,0-19.465-3.74,48.917,48.917,0,0,0-19.55,3.74,43.905,43.905,0,0,0-14.7,10.115,44.63,44.63,0,0,0-9.265,14.7,49.537,49.537,0,0,0,0,35.19,44.61,44.61,0,0,0,9.265,14.705,43.877,43.877,0,0,0,14.7,10.115A52.967,52.967,0,0,0,491.357,198.96ZM450.3,145.92a26.172,26.172,0,0,1,4.93-8.5,23.053,23.053,0,0,1,7.395-5.61,20.929,20.929,0,0,1,9.18-2.04,21.724,21.724,0,0,1,9.18,1.955,22.071,22.071,0,0,1,7.395,5.525,26.208,26.208,0,0,1,4.93,8.5,31.246,31.246,0,0,1,1.785,10.71,31.748,31.748,0,0,1-1.785,10.88,26.187,26.187,0,0,1-4.93,8.5,22.044,22.044,0,0,1-7.395,5.525,22.531,22.531,0,0,1-18.36,0,22,22,0,0,1-7.395-5.525,26.352,26.352,0,0,1-4.93-8.415A33.278,33.278,0,0,1,450.3,145.92Zm130.985,32.47q-2.04.852-5.44,2.04a20.943,20.943,0,0,1-6.97,1.19,9.4,9.4,0,0,1-6.035-1.955q-2.466-1.953-2.465-6.715V129.43h18.7V111.92h-18.7V83.02H537.6v28.9h-11.73v17.51H537.6V180.6a24.584,24.584,0,0,0,1.87,10.115,18.642,18.642,0,0,0,5.015,6.8,19.573,19.573,0,0,0,7.31,3.825,32.4,32.4,0,0,0,8.925,1.19,47.142,47.142,0,0,0,13.94-2.04,101.655,101.655,0,0,0,11.22-4.08Zm81.346,17.765a39.761,39.761,0,0,0,15.725-16.745l-19.551-5.44a17.553,17.553,0,0,1-8.244,8.755,26.271,26.271,0,0,1-12.835,3.315,24,24,0,0,1-8.5-1.53,22.9,22.9,0,0,1-12.58-11.39,26.429,26.429,0,0,1-2.55-9.35h68.85a17.522,17.522,0,0,0,.424-3.4q0.084-2.04.086-4.25a48.73,48.73,0,0,0-3.145-17.34,42.714,42.714,0,0,0-9.18-14.62,44.834,44.834,0,0,0-14.62-10.03,48.321,48.321,0,0,0-19.465-3.74,49.525,49.525,0,0,0-19.635,3.74,44.625,44.625,0,0,0-14.875,10.115,43.736,43.736,0,0,0-9.35,14.79,49.583,49.583,0,0,0-3.23,17.935,46.916,46.916,0,0,0,3.315,17.51A43.709,43.709,0,0,0,617.5,199.045a49.451,49.451,0,0,0,19.381,3.655Q651.835,202.7,662.633,196.155ZM613.758,148.98a24.5,24.5,0,0,1,2.295-9.01,23.324,23.324,0,0,1,5.015-6.97,22.424,22.424,0,0,1,7.054-4.5,23.844,23.844,0,0,1,24.481,4.42q6.542,6.036,7.394,16.065H613.758ZM750.437,110.9a9.209,9.209,0,0,0-1.785-.17h-2.805a20.907,20.907,0,0,0-7.395,1.445,32.363,32.363,0,0,0-7.565,4.165,43.237,43.237,0,0,0-6.97,6.375,40.6,40.6,0,0,0-5.61,8.245V111.92H697.4V201h22.78V147.11a23.386,23.386,0,0,1,11.73-11.475,44.94,44.94,0,0,1,18.53-4V110.9ZM785.966,201V111.92h-22.78V201h22.78Zm0-101.49V76.9h-22.78V99.51h22.78Zm81.258,99.45a42.985,42.985,0,0,0,14.62-10.115,45.383,45.383,0,0,0,9.18-14.705,49.537,49.537,0,0,0,0-35.19,44.7,44.7,0,0,0-9.265-14.7,44.152,44.152,0,0,0-14.62-10.115,48.314,48.314,0,0,0-19.465-3.74,48.917,48.917,0,0,0-19.55,3.74,43.905,43.905,0,0,0-14.705,10.115,44.63,44.63,0,0,0-9.265,14.7,49.537,49.537,0,0,0,0,35.19,44.61,44.61,0,0,0,9.265,14.705,43.877,43.877,0,0,0,14.705,10.115A52.967,52.967,0,0,0,867.224,198.96Zm-41.055-53.04a26.172,26.172,0,0,1,4.93-8.5,23.053,23.053,0,0,1,7.395-5.61,20.929,20.929,0,0,1,9.18-2.04,21.724,21.724,0,0,1,9.18,1.955,22.071,22.071,0,0,1,7.395,5.525,26.208,26.208,0,0,1,4.93,8.5,31.246,31.246,0,0,1,1.785,10.71,31.748,31.748,0,0,1-1.785,10.88,26.187,26.187,0,0,1-4.93,8.5,22.044,22.044,0,0,1-7.395,5.525,22.531,22.531,0,0,1-18.36,0,22,22,0,0,1-7.395-5.525,26.352,26.352,0,0,1-4.93-8.415A33.278,33.278,0,0,1,826.169,145.92ZM962.592,110.9a9.209,9.209,0,0,0-1.785-.17H958a20.907,20.907,0,0,0-7.395,1.445,32.363,32.363,0,0,0-7.565,4.165,43.237,43.237,0,0,0-6.97,6.375,40.6,40.6,0,0,0-5.61,8.245V111.92h-20.91V201h22.78V147.11a23.386,23.386,0,0,1,11.73-11.475,44.94,44.94,0,0,1,18.53-4V110.9Z" transform="translate(0 -3.063)"></path><path class="cls-2" d="M79.729,25.468L63.767,34.812V53.505l15.961-9.344L118,21.753l38.269,22.408,15.966,9.344V34.812l-15.966-9.344L118,3.059ZM63.767,90.892v82.2L118,204.839l54.235-31.752v-82.2l15.962,9.345v63.506l15.965-9.345V90.892L118,40.446,31.836,90.892V154.4L47.8,163.743V100.237Zm15.961,9.345V81.547L118,59.139l38.269,22.408v82.2L118,186.146l-38.273-22.4V100.237Z" transform="translate(0 -3.063)"></path><path id="Shape_650_copy" data-name="Shape 650 copy" class="cls-2" d="M141.947,246.9l78.184-45.769V62.854L236.093,72.2V210.473l-59.044,34.57-35.1,20.549-15.962,9.349v-56.08l15.962-9.349L188.2,182.436l15.965-9.349V191.78l-62.217,36.425V246.9Zm-47.894,0L15.874,201.129V62.854L-0.093,72.2V210.473l59.047,34.57,35.1,20.549,15.966,9.349v-56.08l-15.966-9.349L47.8,182.436l-15.965-9.349V191.78l62.217,36.425V246.9Z" transform="translate(0 -3.063)"></path></svg> 