<svg height="512pt" viewBox="-4 0 512 512" width="512pt" xmlns="http://www.w3.org/2000/svg"><path d="m344 8h152v280h-152zm0 0" fill="#aaafb6"/><path d="m376 144h-16v-48c0-4.417969 3.582031-8 8-8h16v16h-8zm0 0" fill="#e18835"/><path d="m456.410156 69.46875 16.011719-48 15.175781 5.058594-16.007812 48.003906zm0 0" fill="#b6ddf2"/><path d="m408 64h-16v-16c0-4.417969 3.582031-8 8-8h48v16h-40zm0 0" fill="#49a9de"/><path d="m400 144h-16v-40c0-4.417969 3.582031-8 8-8h16v16h-8zm0 0" fill="#b6ddf2"/><path d="m408.414062 98.53125 15.179688-5.058594 16 48.003906-15.179688 5.058594zm0 0" fill="#fbae47"/><path d="m360 168h16v48h-16zm0 0" fill="#ffd877"/><path d="m384 176h16v40h-16zm0 0" fill="#49a9de"/><path d="m408 184h16v32h-16zm0 0" fill="#b6ddf2"/><path d="m192 8h152v280h-152zm0 0" fill="#aaafb6"/><path d="m344 288h152v216h-152zm0 0" fill="#808389"/><path d="m224 64h-16v-32c0-4.417969 3.582031-8 8-8h16v16h-8zm0 0" fill="#ffd877"/><path d="m240 32h16v40h-16zm0 0" fill="#dbeef8"/><path d="m264 32h16v40h-16zm0 0" fill="#fbae47"/><path d="m224 144h-16v-40h-16v-16h24c4.417969 0 8 3.582031 8 8zm0 0" fill="#49a9de"/><path d="m224.40625 98.535156 15.179688-5.0625 16.003906 48.003906-15.179688 5.058594zm0 0" fill="#b6ddf2"/><path d="m296 144h-16v-24c0-4.417969 3.582031-8 8-8h40v16h-32zm0 0" fill="#d6d7d8"/><path d="m208 168h16v48h-16zm0 0" fill="#92cbeb"/><path d="m232 168h16v48h-16zm0 0" fill="#fbae47"/><path d="m256 168h16v48h-16zm0 0" fill="#ffd877"/><path d="m200.847656 243.574219 14.308594-7.15625 24 48-14.308594 7.15625zm0 0" fill="#dbeef8"/><path d="m232.105469 241.324219 15.78125-2.632813 8 48.003906-15.78125 2.628907zm0 0" fill="#b6ddf2"/><path d="m192 288h152v216h-152zm0 0" fill="#808389"/><path d="m41.144531 456h49.367188l-24.679688 56h-24.6875zm0 0" fill="#e18835"/><path d="m271.542969 456h-57.597657l28.796876 56h28.800781zm0 0" fill="#e18835"/><path d="m90.511719 392h197.488281v64h-207.496094 3.625-56.089844l-28.039062-192h56.078125z" fill="#ffd877"/><path d="m160 92c0 39.765625-32.234375 72-72 72s-72-32.234375-72-72 32.234375-72 72-72 72 32.234375 72 72zm0 0" fill="#49a9de"/><path d="m57.601562 344h172.796876v88h-172.796876zm0 0" fill="#fbae47"/><path d="m496 80v-16h-144v-56h-16v56h-144v16h144v56h-144v16h144v56h-144v16h144v56h-144v16h144v200h16v-200h144v-16h-144v-56h144v-16h-144v-56h144v-16h-144v-56zm0 0" fill="#fde0a7"/><path d="m496 512h-304c-4.417969 0-8-3.582031-8-8v-48h16v40h288v-480h-288v328h-16v-336c0-4.417969 3.582031-8 8-8h304c4.417969 0 8 3.582031 8 8v496c0 4.417969-3.582031 8-8 8zm0 0" fill="#e18835"/><path d="m116.480469 25.839844-94.640625 94.640625c-2.421875-5.601563-4.117188-11.488281-5.039063-17.519531l82.160157-82.160157c6.03125.921875 11.917968 2.617188 17.519531 5.039063zm0 0" fill="#b6ddf2"/><path d="m160 90.320312-73.679688 73.679688c-6.570312-.160156-13.085937-1.238281-19.359374-3.199219l89.839843-89.839843c1.960938 6.273437 3.039063 12.789062 3.199219 19.359374zm0 0" fill="#b6ddf2"/><path d="m136.960938 39.28125-101.679688 101.679688c-5.625-5.976563-10.171875-12.875-13.441406-20.402344v-.078125l94.640625-94.640625h.078125c7.527344 3.269531 14.425781 7.816406 20.402344 13.441406zm0 0" fill="#dbeef8"/><path d="m116.425781 127.199219-32-16c-2.726562-1.359375-4.441406-4.152344-4.425781-7.199219v-56h16v51.054688l27.574219 13.785156zm0 0" fill="#377fa7"/><path d="m88 172c-44.183594 0-80-35.816406-80-80s35.816406-80 80-80 80 35.816406 80 80c-.046875 44.164062-35.835938 79.953125-80 80zm0-144c-35.347656 0-64 28.652344-64 64s28.652344 64 64 64 64-28.652344 64-64c-.039062-35.328125-28.671875-63.960938-64-64zm0 0" fill="#92cbeb"/><g fill="#fbae47"><path d="m312 376h16v32h-16zm0 0"/><path d="m360 376h16v32h-16zm0 0"/></g></svg>