<?xml version="1.0" standalone="no"?>
<svg version="1.0" xmlns="http://www.w3.org/2000/svg"
 width="1394pt" height="419pt" viewBox="0 0 1394 419">
 <defs>
	<style>
	 .cls-1 { fill: #d72027; } 
	 .cls-2 { fill: #ffffff; } 
	</style>
</defs>
<g transform="translate(0.000000,419.000000) scale(0.100000,-0.100000)">
<path class="cls-1" d="M1393 3947 l-412 -242 -1 -152 0 -152 108 63 c59 34 244 143 412 241
167 98 309 178 315 178 5 0 195 -109 420 -241 l410 -240 3 146 c2 108 -1 149
-10 157 -16 15 -801 473 -819 479 -8 2 -199 -105 -426 -237z"/>
<path class="cls-1" d="M1138 3222 l-658 -386 0 -490 0 -491 122 -70 c67 -38 125 -71 130
-73 4 -2 8 217 8 486 l0 489 115 67 c63 36 117 66 120 66 3 0 5 -283 5 -628
l0 -628 415 -243 c229 -133 420 -241 424 -239 5 2 194 111 420 243 l411 240 0
628 c0 346 4 627 8 625 5 -1 59 -32 120 -68 l112 -64 2 -488 3 -488 123 71
122 71 -2 495 -3 496 -655 383 c-360 211 -662 383 -670 383 -8 0 -311 -175
-672 -387z m972 -80 l285 -168 3 -626 2 -626 -272 -159 c-150 -88 -283 -165
-295 -172 -20 -10 -53 7 -310 158 l-288 169 -2 628 -3 629 288 167 c158 92
292 167 297 167 6 0 138 -75 295 -167z"/>
<path class="cls-1" d="M117 3199 l-117 -70 2 -1071 3 -1072 843 -493 c464 -271 845 -493
848 -493 2 0 3 197 2 437 l-3 437 -604 353 c-332 194 -605 353 -607 353 -2 0
-4 -67 -4 -149 l0 -149 476 -278 c262 -153 478 -283 480 -289 3 -6 3 -68 2
-137 l-3 -126 -592 346 -593 347 0 1062 c0 585 -3 1063 -7 1063 -5 -1 -61 -32
-126 -71z"/>
<path class="cls-1" d="M3380 2208 l-1 -1063 -471 -275 c-259 -151 -527 -307 -595 -347
l-123 -72 0 137 1 137 470 274 c259 151 473 280 475 286 3 6 3 74 2 152 l-3
141 -602 -352 -602 -351 -1 -438 0 -438 28 15 c15 8 396 230 847 494 l820 480
3 1070 2 1070 -117 68 c-65 38 -121 71 -125 72 -4 2 -8 -475 -8 -1060z"/>
<path class="cls-2" d="M11190 2845 l0 -155 145 0 145 0 0 155 0 155 -145 0 -145 0 0 -155z"/>
<path class="cls-2" d="M4500 2060 l0 -900 150 0 150 0 0 900 0 900 -150 0 -150 0 0 -900z"/>
<path class="cls-2" d="M8050 2670 l0 -190 -85 0 -85 0 0 -125 0 -125 84 0 85 0 4 -407 c3
-333 7 -418 19 -460 51 -167 143 -223 368 -223 91 1 254 20 266 33 2 2 1 56
-2 120 l-7 116 -121 -6 c-145 -7 -188 3 -214 50 -15 28 -17 74 -20 405 l-3
372 180 0 181 0 0 125 0 125 -180 0 -180 0 0 190 0 190 -145 0 -145 0 0 -190z"/>
<path class="cls-2" d="M5721 2499 c-62 -12 -138 -38 -193 -65 -26 -13 -50 -24 -53 -24 -3 0
-5 16 -5 35 l0 35 -145 0 -145 0 0 -660 0 -660 145 0 145 0 0 509 0 509 73 25
c93 33 120 38 211 39 146 0 203 -57 225 -225 6 -44 11 -252 11 -468 l0 -389
146 0 146 0 -5 473 c-3 382 -7 484 -20 537 -38 159 -89 240 -179 286 -93 47
-244 65 -357 43z"/>
<path class="cls-2" d="M6985 2501 c-285 -46 -418 -215 -444 -564 -16 -217 10 -410 74 -543
85 -177 239 -254 504 -254 208 0 332 39 426 134 130 131 192 417 155 712 -36
287 -150 442 -366 499 -68 18 -276 28 -349 16z m281 -272 c57 -27 95 -78 120
-161 24 -80 27 -380 5 -468 -40 -160 -119 -217 -290 -208 -180 9 -238 81 -264
321 -8 80 -8 137 0 220 21 211 70 283 218 321 43 11 165 -4 211 -25z"/>
<path class="cls-2" d="M9298 2500 c-173 -29 -304 -129 -371 -280 -57 -129 -81 -321 -66
-527 23 -323 131 -484 361 -538 117 -27 349 -19 606 22 l102 16 0 115 0 114
-33 -6 c-70 -13 -424 -24 -499 -16 -147 17 -211 75 -237 215 -6 32 -11 65 -11
72 0 11 77 13 404 13 l405 0 7 48 c4 26 8 108 8 182 0 110 -4 149 -22 215 -43
151 -117 247 -235 305 -104 51 -284 72 -419 50z m243 -255 c52 -19 84 -47 110
-96 18 -36 39 -138 39 -191 l0 -28 -270 0 -270 0 0 33 c1 96 51 218 105 253
68 45 202 58 286 29z"/>
<path class="cls-2" d="M10895 2490 c-87 -23 -210 -75 -292 -123 l-63 -36 0 74 0 75 -145 0
-145 0 0 -660 0 -660 145 0 145 0 0 459 0 458 93 36 c96 37 245 81 310 93 l37
6 0 149 c0 82 -3 149 -7 148 -5 0 -39 -8 -78 -19z"/>
<path class="cls-2" d="M12205 2501 c-285 -46 -418 -215 -444 -564 -16 -217 10 -410 74 -543
85 -177 239 -254 504 -254 208 0 332 39 426 134 130 131 192 417 155 712 -36
287 -150 442 -366 499 -68 18 -276 28 -349 16z m281 -272 c57 -27 95 -78 120
-161 24 -80 27 -380 5 -468 -40 -160 -119 -217 -290 -208 -180 9 -238 81 -264
321 -8 80 -8 137 0 220 21 211 70 283 218 321 43 11 165 -4 211 -25z"/>
<path class="cls-2" d="M13855 2490 c-87 -23 -210 -75 -292 -123 l-63 -36 0 74 0 75 -145 0
-145 0 0 -660 0 -660 145 0 145 0 0 459 0 458 93 36 c96 37 245 81 310 93 l37
6 0 149 c0 82 -3 149 -7 148 -5 0 -39 -8 -78 -19z"/>
<path class="cls-2" d="M11190 1820 l0 -660 145 0 145 0 0 660 0 660 -145 0 -145 0 0 -660z"/>
</g>
</svg>
