<svg height="512pt" viewBox="-8 0 512 512" width="512pt" xmlns="http://www.w3.org/2000/svg"><g fill="#808389"><path d="m184 304h24v64h-24zm0 0"/><path d="m296 304h24v64h-24zm0 0"/><path d="m176 400-24 112h24l32-112zm0 0"/><path d="m328 400 24 112h-24l-32-112zm0 0"/></g><path d="m160 368h184v32h-184zm0 0" fill="#d6d7d8"/><path d="m168 240h168v32h-168zm0 0" fill="#aaafb6"/><path d="m72 208-2.960938 24-4 32-1.039062 8h-32l-.960938-8-4-32-3.039062-24zm0 0" fill="#d6d7d8"/><path d="m69.039062 232-4 32h-34l-4-32zm0 0" fill="#6dbae5"/><path d="m136 272h-32l-8-64h48zm0 0" fill="#d6d7d8"/><path d="m141.039062 232-4 32h-34l-4-32zm0 0" fill="#6dbae5"/><path d="m56 304-56 208h24l72-208zm0 0" fill="#e18835"/><path d="m440 304 56 208h-24l-72-208zm0 0" fill="#e18835"/><path d="m0 272h496v32h-496zm0 0" fill="#fbae47"/><path d="m175.921875 142.71875c.375 2.320312-.289063 4.6875-1.8125 6.476562-1.527344 1.785157-3.761719 2.8125-6.109375 2.804688h-48c-2.347656.007812-4.582031-1.019531-6.109375-2.804688-1.523437-1.789062-2.1875-4.15625-1.8125-6.476562l2.480469-14.71875 2.640625-16 2.878906-17.28125c.632813-3.882812 3.988281-6.730469 7.921875-6.71875h32c3.933594-.011719 7.289062 2.835938 7.921875 6.71875l2.878906 17.28125 2.640625 16zm0 0" fill="#6dbae5"/><path d="m408 0h-320v16h48v72h16v-72h88v72h16v-72h88v72h16v-72h48zm0 0" fill="#808389"/><path d="m173.441406 128h-58.882812l2.640625-16h53.601562zm0 0" fill="#c5e3f5"/><path d="m383.921875 142.71875c.375 2.320312-.289063 4.6875-1.8125 6.476562-1.527344 1.785157-3.761719 2.8125-6.109375 2.804688h-48c-2.347656.007812-4.582031-1.019531-6.109375-2.804688-1.523437-1.789062-2.1875-4.15625-1.8125-6.476562l2.480469-14.71875 2.640625-16 2.878906-17.28125c.632813-3.882812 3.988281-6.730469 7.921875-6.71875h32c3.933594-.011719 7.289062 2.835938 7.921875 6.71875l2.878906 17.28125 2.640625 16zm0 0" fill="#6dbae5"/><path d="m381.441406 128h-58.882812l2.640625-16h53.601562zm0 0" fill="#c5e3f5"/><path d="m279.921875 142.71875c.375 2.320312-.289063 4.6875-1.8125 6.476562-1.527344 1.785157-3.761719 2.8125-6.109375 2.804688h-48c-2.347656.007812-4.582031-1.019531-6.109375-2.804688-1.523437-1.789062-2.1875-4.15625-1.8125-6.476562l2.480469-14.71875 2.640625-16 2.878906-17.28125c.632813-3.882812 3.988281-6.730469 7.921875-6.71875h32c3.933594-.011719 7.289062 2.835938 7.921875 6.71875l2.878906 17.28125 2.640625 16zm0 0" fill="#6dbae5"/><path d="m277.441406 128h-58.882812l2.640625-16h53.601562zm0 0" fill="#c5e3f5"/><path d="m128 16h32v16h-32zm0 0" fill="#d6d7d8"/><path d="m336 16h32v16h-32zm0 0" fill="#d6d7d8"/><path d="m232 16h32v16h-32zm0 0" fill="#d6d7d8"/></svg>