<svg xmlns="http://www.w3.org/2000/svg" width="178.907" height="44.25" viewBox="0 0 178.907 44.25">
  <defs>
    <style>
      .cls-1 {
        fill: #00dab2;
      }

      .cls-1, .cls-2 {
        fill-rule: evenodd;
      }

      .cls-2 {
        fill: #fff;
      }
    </style>
  </defs>
  <g id="black">
    <path class="cls-1" d="M13.732,4.405l-2.614,1.53V9l2.614-1.53L20,3.8l6.268,3.67L28.883,9V5.936l-2.615-1.53L20,0.735ZM11.118,15.121V28.583L20,33.783l8.883-5.2V15.121L31.5,16.651v10.4l2.615-1.53v-10.4L20,6.858,5.888,15.121v10.4L8.5,27.052v-10.4Zm2.614,1.531V13.59L20,9.92l6.268,3.67V27.052L20,30.722l-6.269-3.669v-10.4Z" transform="translate(-0.656 -0.75)"/>
    <path id="Shape_650_copy" data-name="Shape 650 copy" class="cls-1" d="M23.922,40.672l12.805-7.5V10.529l2.614,1.531V34.706l-9.671,5.662-5.749,3.366-2.614,1.531V36.08l2.614-1.531L31.5,30.114l2.615-1.531v3.062L23.922,37.61v3.062Zm-7.844,0-12.8-7.5V10.529L0.658,12.059V34.706l9.671,5.662,5.749,3.366,2.615,1.531V36.08l-2.615-1.531L8.5,30.114,5.888,28.583v3.062l10.19,5.966v3.062Z" transform="translate(-0.656 -0.75)"/>
  </g>
  <path id="Inoterior" class="cls-2" d="M54.927,34.2V10.68h-4.1V34.2h4.1ZM74.54,21.214A7.753,7.753,0,0,0,71.9,18.1a6.947,6.947,0,0,0-4.024-1.168,5.261,5.261,0,0,0-2.646.664,6.5,6.5,0,0,0-2.008,1.789V17.4h-4.1V34.2h4.1V25.582a5.7,5.7,0,0,1,.479-2.36,4.132,4.132,0,0,1,1.369-1.705,3.51,3.51,0,0,1,2.1-.638,3.836,3.836,0,0,1,2.192.638,4.4,4.4,0,0,1,1.487,1.705,5.171,5.171,0,0,1,.538,2.36V34.2h4.1V25.514A10.006,10.006,0,0,0,74.54,21.214ZM89.257,33.948a8.422,8.422,0,0,0,2.671-1.907,9.075,9.075,0,0,0,1.806-2.814,9.337,9.337,0,0,0-.479-7.9,8.813,8.813,0,0,0-3.041-3.209,8.069,8.069,0,0,0-7.484-.5,8.4,8.4,0,0,0-2.68,1.907A9.048,9.048,0,0,0,77.59,25.8a8.921,8.921,0,0,0,4.175,7.644A8.086,8.086,0,0,0,89.257,33.948Zm-5.41-4.04A4.611,4.611,0,0,1,82.277,28.2a4.921,4.921,0,0,1-.588-2.4,5.034,5.034,0,0,1,.571-2.369,4.672,4.672,0,0,1,1.546-1.747,3.947,3.947,0,0,1,4.343-.008,4.665,4.665,0,0,1,1.562,1.73,5.215,5.215,0,0,1,.017,4.746,4.642,4.642,0,0,1-1.537,1.73A3.99,3.99,0,0,1,83.848,29.908ZM106.217,17.4h-3.259V12.125h-4.1V17.4H96.372v4.1h2.486V34.2h4.1V21.5h3.259V17.4Zm14.464,15.817a8.928,8.928,0,0,0,3.058-3.654l-4.183-.974a4.507,4.507,0,0,1-1.47,1.436,3.619,3.619,0,0,1-1.958.512,3.95,3.95,0,0,1-3.225-1.655,4.884,4.884,0,0,1-.773-1.688h12.281a9.349,9.349,0,0,0-1.9-7.157,8.281,8.281,0,0,0-2.78-2.276,8.144,8.144,0,0,0-6.863-.143,8.4,8.4,0,0,0-2.679,1.907,9.052,9.052,0,0,0-2.462,6.258,8.924,8.924,0,0,0,1.134,4.452,8.811,8.811,0,0,0,3.041,3.209A8.043,8.043,0,0,0,120.681,33.217ZM112.81,22.28a4.515,4.515,0,0,1,1.454-1.294,3.756,3.756,0,0,1,1.864-.479A3.805,3.805,0,0,1,118.01,21a4.559,4.559,0,0,1,1.47,1.3,4.39,4.39,0,0,1,.781,1.823H112A4.754,4.754,0,0,1,112.81,22.28Zm25.226-5.1A4.361,4.361,0,0,0,137.019,17q-0.528-.033-1.1-0.034a5.311,5.311,0,0,0-2.646.655,6.475,6.475,0,0,0-2.008,1.764V17.4h-4.1V34.2H131.3V25.6a5.8,5.8,0,0,1,.47-2.36,4.1,4.1,0,0,1,1.353-1.705,3.794,3.794,0,0,1,3.276-.454,4.365,4.365,0,0,1,.983.487Zm2.52,17.018h4.1V17.4h-4.1V34.2Zm3.57-19.9a2.14,2.14,0,0,0,0-3,2.06,2.06,0,0,0-1.5-.6,2.086,2.086,0,0,0-1.512.6,2.121,2.121,0,0,0,0,3,2.1,2.1,0,0,0,1.512.6A2.075,2.075,0,0,0,144.126,14.3Zm16.8,19.648a8.428,8.428,0,0,0,2.672-1.907,9.079,9.079,0,0,0,1.806-2.814,9.338,9.338,0,0,0-.479-7.9,8.813,8.813,0,0,0-3.041-3.209,8.068,8.068,0,0,0-7.484-.5,8.392,8.392,0,0,0-2.68,1.907,9.046,9.046,0,0,0-2.461,6.275,8.921,8.921,0,0,0,4.175,7.644A8.085,8.085,0,0,0,160.925,33.948Zm-5.409-4.04a4.614,4.614,0,0,1-1.571-1.705,4.923,4.923,0,0,1-.588-2.4,5.032,5.032,0,0,1,.571-2.369,4.674,4.674,0,0,1,1.546-1.747,3.947,3.947,0,0,1,4.343-.008,4.662,4.662,0,0,1,1.562,1.73,5.213,5.213,0,0,1,.017,4.746,4.65,4.65,0,0,1-1.537,1.73A3.991,3.991,0,0,1,155.516,29.908Zm24.049-12.726A4.353,4.353,0,0,0,178.549,17q-0.53-.033-1.1-0.034a5.316,5.316,0,0,0-2.646.655,6.483,6.483,0,0,0-2.007,1.764V17.4h-4.1V34.2h4.132V25.6a5.782,5.782,0,0,1,.471-2.36,4.092,4.092,0,0,1,1.352-1.705,3.794,3.794,0,0,1,3.276-.454,4.345,4.345,0,0,1,.983.487Z" transform="translate(-0.656 -0.75)"/>
</svg>
