<svg id="black_copy" data-name="black copy" xmlns="http://www.w3.org/2000/svg" width="236.094" height="271.875" viewBox="0 0 236.094 271.875">
  <defs>
    <style>
      .cls-1 {
        fill: #fff;
        fill-rule: evenodd;
      }
    </style>
  </defs>
  <path class="cls-1" d="M79.729,22.468L63.767,31.812V50.505l15.961-9.344L118,18.753l38.269,22.408,15.966,9.344V31.812l-15.966-9.344L118,0.059ZM63.767,87.892v82.2L118,201.839l54.235-31.752v-82.2L188.2,97.237v63.506l15.965-9.345V87.892L118,37.446,31.836,87.892V151.4L47.8,160.743V97.237Zm15.961,9.345V78.547L118,56.139l38.269,22.408v82.2L118,183.146l-38.273-22.4V97.237Z" transform="translate(0 -0.063)"/>
  <path id="Shape_650_copy" data-name="Shape 650 copy" class="cls-1" d="M141.947,243.9l78.184-45.769V59.854L236.093,69.2V207.473l-59.044,34.57-35.1,20.549-15.962,9.349v-56.08l15.962-9.349L188.2,179.436l15.965-9.349V188.78l-62.217,36.425V243.9Zm-47.894,0L15.874,198.129V59.854L-0.093,69.2V207.473l59.047,34.57,35.1,20.549,15.966,9.349v-56.08l-15.966-9.349L47.8,179.436l-15.965-9.349V188.78l62.217,36.425V243.9Z" transform="translate(0 -0.063)"/>
</svg>
